<?xml version="1.0" encoding="utf-8"?>
<!-- Generator: Adobe Illustrator 22.0.1, SVG Export Plug-In . SVG Version: 6.00 Build 0)  -->
<svg version="1.1" id="Layer_5" xmlns="http://www.w3.org/2000/svg" xmlns:xlink="http://www.w3.org/1999/xlink" x="0px" y="0px"
	 viewBox="0 0 598.5 552.1" style="enable-background:new 0 0 598.5 552.1;" xml:space="preserve">
<style type="text/css">
	.st0{fill:#00AF89;}
	.st1{fill:#F5A623;}
	.st2{fill:#FFEBD2;}
	.st3{fill:#8DD1B3;}
</style>
<polygon class="st0" points="313.8,313 349.7,372.6 382.4,322.7 340.3,247.3 "/>
<path class="st0" d="M134.5,282.1C60.2,282.1,0,342.3,0,416.6s60.2,134.5,134.5,134.5S269,490.9,269,416.6S208.8,282.1,134.5,282.1z
	 M134.5,500.1c-45.6,0-82.5-36.9-82.5-82.5s36.9-82.5,82.5-82.5S217,372,217,417.6S180.1,500.1,134.5,500.1z"/>
<path class="st1" d="M464,501.1c-45.6,0-82.5-36.9-82.5-82.5s36.9-82.5,82.5-82.5c27,0,51.1,13,66.1,33.1l42.2-31.5
	C547.8,304.5,508.4,283,464,283c-74.3,0.1-134.5,60.3-134.5,134.6S389.7,552.1,464,552.1c43.8,0,82.8-21,107.3-53.4L530.1,468
	C515.1,488.1,491,501.1,464,501.1z"/>
<path class="st2" d="M598.5,417.6c0,30.5-10.1,58.5-27.2,81.1L530.1,468c10.3-13.8,16.4-30.8,16.4-49.4s-6.1-35.6-16.4-49.4
	l42.2-31.5C588.8,360.1,598.5,387.7,598.5,417.6z"/>
<polygon class="st0" points="292.2,306.4 256.3,365.9 223.6,316 265.8,240.6 "/>
<path class="st3" d="M464.6,46L464.6,46c0,4-1.1,7.8-3,11.3l-12.3,22l-128.1,230c-9,16.1-32.1,16.3-41.3,0.3L260,274.9
	c-4.2-7.3-4.2-16.2-0.2-23.6L377.9,39.1L390.2,17c1.9-3.4,4.5-6.3,7.8-8.4c6.7-4.2,14.5-6.6,22.9-6.6C445.1,2.2,464.6,21.8,464.6,46
	z"/>
<path class="st3" d="M281.9,158.3L233,242.9L141.2,78.8l-12.6-22.5c-2-3.5-3.1-7.4-3.1-11.4v-0.1c0-24.7,20-44.8,44.8-44.8
	c8.7,0,16.7,2.5,23.6,6.7c3.4,2.1,6.1,5.1,8,8.6l12.6,22.6L281.9,158.3z"/>
</svg>
